# xmcd
#
# Track frame offsets:
#	182
#	17702
#	33962
#	52170
#	72360
#	88745
#	106130
#	130857
#	148357
#	160572
#	183835
#	195312
#	212060
#	230527
#
# Disc length: 3305 seconds
#
# Revision: 5
# Processed by: cddbd v1.5.1PL2 Copyright (c) Steve Scherf et al.
# Submitted via: dBpowerAMP V4.0
#
DISCID=bf0ce70e
DTITLE=Billy Ray Cyrus - Storm In The Heartland
DYEAR=1994
DGENRE=Country
TTITLE0=Storm In The Heartland
TTITLE1=Deja Blue
TTITLE2=Redneck Heaven
TTITLE3=Casualty Of Love
TTITLE4=One Last Thrill
TTITLE5=I Ain't Even Left
TTITLE6=How Much
TTITLE7=Patsy Come Home
TTITLE8=A Heart With Your Name On It
TTITLE9=Only God Could Stop Me Loving You
TTITLE10=Roll Me Over
TTITLE11=Enough Is Enough
TTITLE12=The Past
TTITLE13=Geronimo
EXTD=Mercury Records
EXTT0=
EXTT1=
EXTT2=
EXTT3=
EXTT4=
EXTT5=
EXTT6=
EXTT7=
EXTT8=
EXTT9=
EXTT10=
EXTT11=
EXTT12=
EXTT13=
PLAYORDER=
